<?xml version="1.0" encoding="UTF-8" standalone="no"?>
<svg
   width="222pt"
   height="61pt"
   viewBox="0 0 222 61"
   version="1.1"
   id="svg870"
   xmlns="http://www.w3.org/2000/svg"
   xmlns:svg="http://www.w3.org/2000/svg">
  <defs
     id="defs874" />
  <rect
     style="fill:#203666;fill-opacity:1;stroke:none;stroke-width:22.9691;stroke-linecap:round;stroke-linejoin:round;stroke-opacity:1;paint-order:stroke markers fill"
     id="rect22457"
     width="222"
     height="61"
     x="0"
     y="0" />
  <g
     stroke-linecap="round"
     fill-rule="evenodd"
     fill="#000000"
     id="g868"
     transform="translate(41.849998,20)"
     style="fill:#5771d9;fill-opacity:1">
    <path
       d="m 126.8,35 h -3.75 V 10 h 3.75 v 3.9 q 1.35,-1.8 3.3,-3.05 a 7.448,7.448 0 0 1 2.264,-0.947 q 0.965,-0.237 2.092,-0.289 A 14.045,14.045 0 0 1 135.1,9.6 q 2.6,0 4.875,1.225 a 9.297,9.297 0 0 1 3.319,3.045 11.336,11.336 0 0 1 0.381,0.605 q 1.365,2.322 1.423,5.675 a 17.335,17.335 0 0 1 0.002,0.3 V 35 h -3.75 V 20.55 A 9.661,9.661 0 0 0 141.076,18.186 6.93,6.93 0 0 0 139.4,15.075 6.493,6.493 0 0 0 134.921,13.018 8.803,8.803 0 0 0 134.35,13 a 7.995,7.995 0 0 0 -2.569,0.404 7.288,7.288 0 0 0 -1.231,0.546 q -1.7,0.95 -2.725,2.675 A 7.32,7.32 0 0 0 126.851,19.624 9.17,9.17 0 0 0 126.8,20.6 Z M 67.9,35 H 48.2 v -3.55 l 14.95,-18 H 48.4 V 10 h 19.5 v 3.5 l -15,18 h 15 z M 24.8,22.5 V 24 H 3.85 q 0.3,2.2 1.425,4.025 1.125,1.825 3.025,2.9 A 8.268,8.268 0 0 0 11.332,31.914 10.553,10.553 0 0 0 12.7,32 9.919,9.919 0 0 0 14.713,31.806 7.014,7.014 0 0 0 17.15,30.825 q 1.8,-1.175 2.8,-3.025 h 4.1 q -1.3,3.35 -4.125,5.475 Q 17.1,35.4 12.65,35.4 A 14.147,14.147 0 0 1 9.088,34.969 11.507,11.507 0 0 1 6,33.675 Q 3.15,31.95 1.575,29 A 13.507,13.507 0 0 1 0.004,22.831 15.816,15.816 0 0 1 0,22.5 14.909,14.909 0 0 1 0.583,18.276 13.171,13.171 0 0 1 1.5,15.975 Q 3,13.05 5.8,11.325 A 11.528,11.528 0 0 1 10.232,9.752 14.98,14.98 0 0 1 12.4,9.6 a 14.412,14.412 0 0 1 3.269,0.354 11.043,11.043 0 0 1 3.356,1.371 q 2.775,1.725 4.275,4.65 a 13.739,13.739 0 0 1 1.46,5.362 16.529,16.529 0 0 1 0.04,1.163 z M 92.3,14.05 V 10 h 3.75 V 35 H 92.3 v -4 q -1.4,2 -3.625,3.2 -2.225,1.2 -5.325,1.2 A 13.045,13.045 0 0 1 79.932,34.969 10.735,10.735 0 0 1 76.975,33.675 Q 74.25,31.95 72.75,29 A 13.964,13.964 0 0 1 71.263,23.16 16.418,16.418 0 0 1 71.25,22.5 14.909,14.909 0 0 1 71.833,18.276 13.171,13.171 0 0 1 72.75,15.975 q 1.5,-2.925 4.225,-4.65 A 11.093,11.093 0 0 1 81.583,9.708 14.114,14.114 0 0 1 83.35,9.6 a 13.411,13.411 0 0 1 2.545,0.23 9.69,9.69 0 0 1 2.78,0.97 Q 90.9,12 92.3,14.05 Z m 78.55,0 V 10 h 3.75 v 25 h -3.75 v -4 q -1.4,2 -3.625,3.2 -2.225,1.2 -5.325,1.2 a 13.045,13.045 0 0 1 -3.418,-0.431 10.735,10.735 0 0 1 -2.957,-1.294 Q 152.8,31.95 151.3,29 a 13.964,13.964 0 0 1 -1.487,-5.84 16.418,16.418 0 0 1 -0.013,-0.66 14.909,14.909 0 0 1 0.583,-4.224 13.171,13.171 0 0 1 0.917,-2.301 q 1.5,-2.925 4.225,-4.65 a 11.093,11.093 0 0 1 4.608,-1.617 14.114,14.114 0 0 1 1.767,-0.108 13.411,13.411 0 0 1 2.545,0.23 9.69,9.69 0 0 1 2.78,0.97 q 2.225,1.2 3.625,3.25 z M 33.15,35 H 29.4 V 0 h 3.75 z m 73.15,0 h -3.75 V 0 h 3.75 z M 83.85,32 A 10.015,10.015 0 0 0 86.057,31.769 7.338,7.338 0 0 0 88.575,30.7 Q 90.5,29.4 91.5,27.225 A 11.093,11.093 0 0 0 92.496,22.817 12.831,12.831 0 0 0 92.5,22.5 11.735,11.735 0 0 0 92.09,19.353 10.347,10.347 0 0 0 91.5,17.75 Q 90.5,15.6 88.575,14.3 A 7.436,7.436 0 0 0 85.769,13.172 10.259,10.259 0 0 0 83.85,13 9.775,9.775 0 0 0 81.437,13.286 7.761,7.761 0 0 0 79.1,14.3 q -2,1.3 -3.05,3.45 A 10.467,10.467 0 0 0 75.021,21.778 12.429,12.429 0 0 0 75,22.5 q 0,2.55 1.05,4.725 Q 77.1,29.4 79.1,30.7 A 7.997,7.997 0 0 0 82.363,31.897 10.431,10.431 0 0 0 83.85,32 Z m 78.55,0 a 10.015,10.015 0 0 0 2.207,-0.231 7.338,7.338 0 0 0 2.518,-1.069 q 1.925,-1.3 2.925,-3.475 a 11.093,11.093 0 0 0 0.996,-4.408 12.831,12.831 0 0 0 0.004,-0.317 11.735,11.735 0 0 0 -0.41,-3.147 10.347,10.347 0 0 0 -0.59,-1.603 q -1,-2.15 -2.925,-3.45 A 7.436,7.436 0 0 0 164.319,13.172 10.259,10.259 0 0 0 162.4,13 9.775,9.775 0 0 0 159.987,13.286 7.761,7.761 0 0 0 157.65,14.3 q -2,1.3 -3.05,3.45 a 10.467,10.467 0 0 0 -1.029,4.028 12.429,12.429 0 0 0 -0.021,0.722 q 0,2.55 1.05,4.725 1.05,2.175 3.05,3.475 a 7.997,7.997 0 0 0 3.263,1.197 A 10.431,10.431 0 0 0 162.4,32 Z m -119,3 H 39.65 V 10 h 3.75 z m 73.15,0 H 112.8 V 10 h 3.75 z M 3.9,20.5 h 17 A 9.618,9.618 0 0 0 19.611,16.91 9.158,9.158 0 0 0 18.2,15.15 Q 16,13 12.4,13 A 9.769,9.769 0 0 0 9.853,13.315 7.153,7.153 0 0 0 6.625,15.15 9.552,9.552 0 0 0 3.946,20.252 11.69,11.69 0 0 0 3.9,20.5 Z M 43.55,5.8 H 39.5 V 0.9 h 4.05 z m 73.15,0 h -4.05 V 0.9 h 4.05 z"
       vector-effect="non-scaling-stroke"
       id="path866"
       style="fill:#5771d9;fill-opacity:1" />
  </g>
  <path
     style="fill:#c7a23c;fill-opacity:1;stroke:none;stroke-width:0.75px;stroke-linecap:butt;stroke-linejoin:miter;stroke-opacity:1"
     d="M 6.9999996,20 16,18 12.999999,12.999999 18,16 20,6.9999996 22,16 26.999999,13 24,18 32.999999,20 24,22 26.999999,26.999999 22,24 20,32.999999 18,24 13,26.999999 16,22 Z"
     id="path1071" />
  <path
     style="fill:#ab8a33;fill-opacity:1;stroke:none;stroke-width:0.75px;stroke-linecap:butt;stroke-linejoin:miter;stroke-opacity:1"
     d="M 32.999998,20 23.999999,18 27,12.999999 22,16 20,6.9999996 V 20 Z"
     id="path1153" />
  <path
     style="fill:#ab8a33;fill-opacity:1;stroke:none;stroke-width:0.75px;stroke-linecap:butt;stroke-linejoin:miter;stroke-opacity:1"
     d="M 6.9999996,20 16,22 12.999999,27 18,24 20,32.999999 V 20 Z"
     id="path1155" />
  <path
     style="fill:#8f742b;fill-opacity:1;stroke:none;stroke-width:0.75px;stroke-linecap:butt;stroke-linejoin:miter;stroke-opacity:1"
     d="M 32.999998,20 23.999999,22 27,27 22,24 20,32.999999 V 20 Z"
     id="path1157" />
  <path
     style="fill:#c7a23c;fill-opacity:1;stroke:none;stroke-width:0.75px;stroke-linecap:butt;stroke-linejoin:miter;stroke-opacity:1"
     d="m 16,42.999999 3,-1 1,-3 1,3 3,1 -3,1 -1,3 -1,-3 z"
     id="path20305" />
  <path
     style="fill:#ab8a33;fill-opacity:1;stroke:none;stroke-width:0.75px;stroke-linecap:butt;stroke-linejoin:miter;stroke-opacity:1"
     d="m 24,42.999999 -3,-1 -1,-3 v 4 z"
     id="path20307" />
  <path
     style="fill:#ab8a33;fill-opacity:1;stroke:none;stroke-width:0.75px;stroke-linecap:butt;stroke-linejoin:miter;stroke-opacity:1"
     d="m 16,42.999999 3,1 1,3 v -4 z"
     id="path20309" />
  <path
     style="fill:#8f742b;fill-opacity:1;stroke:none;stroke-width:0.75px;stroke-linecap:butt;stroke-linejoin:miter;stroke-opacity:1"
     d="m 24,42.999999 -3,1 -1,3 v -4 z"
     id="path20311" />
  <path
     style="fill:#c7a23c;fill-opacity:1;stroke:none;stroke-width:0.75px;stroke-linecap:butt;stroke-linejoin:miter;stroke-opacity:1"
     d="m 38.999999,20 3,-1 1,-3 1,3 3,1 -3,1 -1,3 -1,-3 z"
     id="path21818" />
  <path
     style="fill:#ab8a33;fill-opacity:1;stroke:none;stroke-width:0.75px;stroke-linecap:butt;stroke-linejoin:miter;stroke-opacity:1"
     d="m 46.999999,20 -3,-1 -1,-3 v 4 z"
     id="path21820" />
  <path
     style="fill:#ab8a33;fill-opacity:1;stroke:none;stroke-width:0.75px;stroke-linecap:butt;stroke-linejoin:miter;stroke-opacity:1"
     d="m 38.999999,20 3,1 1,3 v -4 z"
     id="path21822" />
  <path
     style="fill:#8f742b;fill-opacity:1;stroke:none;stroke-width:0.75px;stroke-linecap:butt;stroke-linejoin:miter;stroke-opacity:1"
     d="m 46.999999,20 -3,1 -1,3 v -4 z"
     id="path21824" />
  <path
     style="fill:#c7a23c;fill-opacity:1;stroke:none;stroke-width:0.75px;stroke-linecap:butt;stroke-linejoin:miter;stroke-opacity:1"
     d="m 29,35.999999 0.999999,-1 1,1 -1,1 z"
     id="path21826" />
  <path
     style="fill:#ab8a33;fill-opacity:1;stroke:none;stroke-width:0.75px;stroke-linecap:butt;stroke-linejoin:miter;stroke-opacity:1"
     d="m 30.999999,35.999999 -1,-1 v 1 z"
     id="path21828" />
  <path
     style="fill:#ab8a33;fill-opacity:1;stroke:none;stroke-width:0.75px;stroke-linecap:butt;stroke-linejoin:miter;stroke-opacity:1"
     d="m 29,35.999999 0.999999,1 v -1 z"
     id="path21830" />
  <path
     style="fill:#8f742b;fill-opacity:1;stroke:none;stroke-width:0.75px;stroke-linecap:butt;stroke-linejoin:miter;stroke-opacity:1"
     d="m 30.999999,35.999999 -1,1 v -1 z"
     id="path21832" />
  <path
     style="fill:#c7a23c;fill-opacity:1;stroke:none;stroke-width:0.75px;stroke-linecap:butt;stroke-linejoin:miter;stroke-opacity:1"
     d="m 35,29.999999 0.999999,-1 1,1 -1,1 z"
     id="path22427" />
  <path
     style="fill:#ab8a33;fill-opacity:1;stroke:none;stroke-width:0.75px;stroke-linecap:butt;stroke-linejoin:miter;stroke-opacity:1"
     d="m 36.999999,29.999999 -1,-1 v 1 z"
     id="path22429" />
  <path
     style="fill:#ab8a33;fill-opacity:1;stroke:none;stroke-width:0.75px;stroke-linecap:butt;stroke-linejoin:miter;stroke-opacity:1"
     d="m 35,29.999999 0.999999,1 v -1 z"
     id="path22431" />
  <path
     style="fill:#8f742b;fill-opacity:1;stroke:none;stroke-width:0.75px;stroke-linecap:butt;stroke-linejoin:miter;stroke-opacity:1"
     d="m 36.999999,29.999999 -1,1 v -1 z"
     id="path22433" />
</svg>
